<?xml version="1.0" standalone="no"?>
<!DOCTYPE svg PUBLIC "-//W3C//DTD SVG 20010904//EN"
 "http://www.w3.org/TR/2001/REC-SVG-20010904/DTD/svg10.dtd">
<svg version="1.0" xmlns="http://www.w3.org/2000/svg"
 width="821.000000pt" height="201.000000pt" viewBox="0 0 821.000000 201.000000"
 preserveAspectRatio="xMidYMid meet">

<g transform="translate(0.000000,201.000000) scale(0.100000,-0.100000)"
fill="#000000" stroke="none">
<path d="M1905 1994 c-468 -83 -594 -111 -867 -194 -331 -101 -523 -185 -718
-315 -109 -72 -245 -207 -278 -276 -51 -105 -50 -227 3 -335 51 -105 270 -286
463 -383 143 -72 390 -164 621 -232 232 -68 871 -189 896 -169 6 4 42 32 82
62 l72 55 -107 28 c-453 117 -853 297 -1041 469 -59 54 -133 169 -155 240 -26
83 -19 193 19 266 77 152 355 355 652 474 129 52 445 155 551 181 41 10 70 21
65 25 -27 25 -163 120 -170 119 -4 -1 -44 -8 -88 -15z"/>
<path d="M8037 1638 c-29 -46 -110 -174 -181 -285 -70 -112 -131 -203 -134
-203 -4 0 -41 66 -82 145 l-75 145 -108 0 -109 0 25 -42 c124 -216 228 -411
224 -422 -3 -8 -104 -150 -224 -317 -120 -167 -229 -319 -242 -336 l-22 -33
59 0 59 0 208 305 c115 168 212 302 216 298 4 -4 42 -74 84 -155 l77 -148 104
0 105 0 -12 22 c-6 13 -63 119 -126 236 -63 117 -113 219 -109 227 3 8 100
153 216 324 115 170 210 312 210 315 0 3 -25 6 -55 6 l-55 0 -53 -82z"/>
<path d="M1890 1455 c-83 -24 -135 -52 -196 -107 -105 -96 -138 -192 -132
-378 3 -100 7 -123 32 -177 52 -115 172 -199 319 -224 94 -15 248 -7 312 18
47 17 51 22 67 72 10 30 15 57 12 62 -2 5 -25 -7 -50 -26 -152 -116 -377 -62
-459 111 -20 43 -35 131 -35 211 0 227 121 377 305 378 58 0 78 -5 115 -27 25
-14 56 -38 69 -52 14 -14 28 -26 32 -26 4 0 12 21 18 48 5 26 13 55 16 64 19
48 -300 87 -425 53z"/>
<path d="M6661 1450 c-120 -25 -237 -109 -289 -208 -78 -146 -82 -305 -12
-448 92 -189 345 -269 596 -189 193 61 294 207 294 423 0 199 -89 337 -260
403 -63 24 -252 35 -329 19z m204 -71 c64 -18 139 -101 165 -186 25 -81 28
-238 6 -321 -59 -219 -272 -301 -428 -163 -98 86 -125 324 -58 505 22 59 75
127 114 148 51 27 137 35 201 17z"/>
<path d="M2490 1015 l0 -425 90 0 90 0 0 200 c0 182 6 230 24 183 4 -9 55 -99
113 -200 l106 -183 110 0 109 0 -14 23 c-65 99 -240 381 -244 391 -3 8 9 17
34 24 21 6 57 28 80 47 83 72 95 212 25 296 -52 62 -84 69 -315 69 l-208 0 0
-425z m305 351 c51 -22 75 -68 75 -146 0 -114 -55 -180 -151 -180 l-49 0 0
170 0 170 45 0 c25 0 61 -6 80 -14z"/>
<path d="M3250 1015 l0 -425 233 0 233 0 0 53 1 53 -71 -8 c-39 -4 -101 -7
-138 -7 l-68 -1 0 161 0 160 135 -3 135 -3 0 47 0 46 -135 -1 -135 -2 -2 135
-3 135 90 -2 c50 0 114 -4 143 -7 l52 -6 0 50 0 50 -235 0 -235 0 0 -425z"/>
<path d="M3945 1408 c-3 -18 -28 -190 -56 -383 -28 -192 -54 -369 -58 -392
l-8 -43 52 0 53 0 7 78 c14 180 37 406 44 445 l7 42 88 -180 c49 -99 110 -226
137 -282 42 -87 53 -103 73 -103 18 0 28 10 43 48 44 102 246 522 252 522 4 0
17 -105 29 -232 13 -128 25 -256 28 -285 l6 -52 94 1 c72 1 94 4 94 15 0 7
-22 191 -50 409 -27 218 -50 402 -50 410 0 10 -14 14 -50 14 l-50 0 -146 -291
c-80 -160 -148 -288 -151 -285 -4 3 -69 133 -145 288 l-138 283 -50 3 c-48 3
-49 3 -55 -30z"/>
<path d="M5000 1018 l0 -423 90 0 90 -1 0 423 0 423 -90 0 -90 0 0 -422z"/>
<path d="M5407 1433 c-4 -3 -7 -195 -7 -425 l0 -418 50 0 50 0 0 302 0 302 36
-35 c19 -18 144 -154 277 -301 l242 -268 53 0 52 0 0 423 0 422 -47 -1 -48 -1
0 -287 c0 -157 -2 -285 -5 -284 -4 2 -32 32 -65 68 -32 36 -152 165 -267 288
l-209 222 -53 0 c-29 0 -56 -3 -59 -7z"/>
</g>
</svg>
